<svg width="160" height="25" viewBox="0 0 160 25" fill="none" xmlns="http://www.w3.org/2000/svg">
<path d="M7.89844 0.859375V4.43359H6.14062V0.859375H7.89844ZM7.6875 19.9961V23.125H5.94141V19.9961H7.6875ZM10.0312 16.293C10.0312 15.8242 9.92578 15.4023 9.71484 15.0273C9.50391 14.6523 9.15625 14.3086 8.67188 13.9961C8.1875 13.6836 7.53906 13.3945 6.72656 13.1289C5.74219 12.8242 4.89062 12.4531 4.17188 12.0156C3.46094 11.5781 2.91016 11.0352 2.51953 10.3867C2.13672 9.73828 1.94531 8.95312 1.94531 8.03125C1.94531 7.07031 2.15234 6.24219 2.56641 5.54688C2.98047 4.85156 3.56641 4.31641 4.32422 3.94141C5.08203 3.56641 5.97266 3.37891 6.99609 3.37891C7.79297 3.37891 8.50391 3.5 9.12891 3.74219C9.75391 3.97656 10.2812 4.32812 10.7109 4.79688C11.1484 5.26562 11.4805 5.83984 11.707 6.51953C11.9414 7.19922 12.0586 7.98438 12.0586 8.875H9.90234C9.90234 8.35156 9.83984 7.87109 9.71484 7.43359C9.58984 6.99609 9.40234 6.61719 9.15234 6.29688C8.90234 5.96875 8.59766 5.71875 8.23828 5.54688C7.87891 5.36719 7.46484 5.27734 6.99609 5.27734C6.33984 5.27734 5.79688 5.39063 5.36719 5.61719C4.94531 5.84375 4.63281 6.16406 4.42969 6.57812C4.22656 6.98438 4.125 7.45703 4.125 7.99609C4.125 8.49609 4.22656 8.93359 4.42969 9.30859C4.63281 9.68359 4.97656 10.0234 5.46094 10.3281C5.95312 10.625 6.62891 10.918 7.48828 11.207C8.49609 11.5273 9.35156 11.9062 10.0547 12.3438C10.7578 12.7734 11.293 13.3047 11.6602 13.9375C12.0273 14.5625 12.2109 15.3398 12.2109 16.2695C12.2109 17.2773 11.9844 18.1289 11.5312 18.8242C11.0781 19.5117 10.4414 20.0352 9.62109 20.3945C8.80078 20.7539 7.83984 20.9336 6.73828 20.9336C6.07422 20.9336 5.41797 20.8438 4.76953 20.6641C4.12109 20.4844 3.53516 20.1914 3.01172 19.7852C2.48828 19.3711 2.07031 18.8281 1.75781 18.1562C1.44531 17.4766 1.28906 16.6445 1.28906 15.6602H3.46875C3.46875 16.3242 3.5625 16.875 3.75 17.3125C3.94531 17.7422 4.20312 18.0859 4.52344 18.3438C4.84375 18.5938 5.19531 18.7734 5.57812 18.8828C5.96875 18.9844 6.35547 19.0352 6.73828 19.0352C7.44141 19.0352 8.03516 18.9258 8.51953 18.707C9.01172 18.4805 9.38672 18.1602 9.64453 17.7461C9.90234 17.332 10.0312 16.8477 10.0312 16.293Z" fill="#333333"/>
<path d="M31.4766 3.625V4.84375L24.4102 20.6875H22.125L29.1797 5.40625H19.9453V3.625H31.4766ZM45.4805 14.9453V16.7266H33.1523V15.4492L40.793 3.625H42.5625L40.6641 7.04688L35.6133 14.9453H45.4805ZM43.1016 3.625V20.6875H40.9336V3.625H43.1016ZM47.7188 19.5391C47.7188 19.1719 47.832 18.8633 48.0586 18.6133C48.293 18.3555 48.6289 18.2266 49.0664 18.2266C49.5039 18.2266 49.8359 18.3555 50.0625 18.6133C50.2969 18.8633 50.4141 19.1719 50.4141 19.5391C50.4141 19.8984 50.2969 20.2031 50.0625 20.4531C49.8359 20.7031 49.5039 20.8281 49.0664 20.8281C48.6289 20.8281 48.293 20.7031 48.0586 20.4531C47.832 20.2031 47.7188 19.8984 47.7188 19.5391ZM55.9336 18.8711H56.1562C57.4062 18.8711 58.4219 18.6953 59.2031 18.3438C59.9844 17.9922 60.5859 17.5195 61.0078 16.9258C61.4297 16.332 61.7188 15.6641 61.875 14.9219C62.0312 14.1719 62.1094 13.4023 62.1094 12.6133V10C62.1094 9.22656 62.0195 8.53906 61.8398 7.9375C61.668 7.33594 61.4258 6.83203 61.1133 6.42578C60.8086 6.01953 60.4609 5.71094 60.0703 5.5C59.6797 5.28906 59.2656 5.18359 58.8281 5.18359C58.3281 5.18359 57.8789 5.28516 57.4805 5.48828C57.0898 5.68359 56.7578 5.96094 56.4844 6.32031C56.2188 6.67969 56.0156 7.10156 55.875 7.58594C55.7344 8.07031 55.6641 8.59766 55.6641 9.16797C55.6641 9.67578 55.7266 10.168 55.8516 10.6445C55.9766 11.1211 56.168 11.5508 56.4258 11.9336C56.6836 12.3164 57.0039 12.6211 57.3867 12.8477C57.7773 13.0664 58.2344 13.1758 58.7578 13.1758C59.2422 13.1758 59.6953 13.082 60.1172 12.8945C60.5469 12.6992 60.9258 12.4375 61.2539 12.1094C61.5898 11.7734 61.8555 11.3945 62.0508 10.9727C62.2539 10.5508 62.3711 10.1094 62.4023 9.64844H63.4336C63.4336 10.2969 63.3047 10.9375 63.0469 11.5703C62.7969 12.1953 62.4453 12.7656 61.9922 13.2812C61.5391 13.7969 61.0078 14.2109 60.3984 14.5234C59.7891 14.8281 59.125 14.9805 58.4062 14.9805C57.5625 14.9805 56.832 14.8164 56.2148 14.4883C55.5977 14.1602 55.0898 13.7227 54.6914 13.1758C54.3008 12.6289 54.0078 12.0195 53.8125 11.3477C53.625 10.668 53.5312 9.98047 53.5312 9.28516C53.5312 8.47266 53.6445 7.71094 53.8711 7C54.0977 6.28906 54.4336 5.66406 54.8789 5.125C55.3242 4.57812 55.875 4.15234 56.5312 3.84766C57.1953 3.54297 57.9609 3.39062 58.8281 3.39062C59.8047 3.39062 60.6367 3.58594 61.3242 3.97656C62.0117 4.36719 62.5703 4.89062 63 5.54688C63.4375 6.20312 63.7578 6.94141 63.9609 7.76172C64.1641 8.58203 64.2656 9.42578 64.2656 10.293V11.0781C64.2656 11.9609 64.207 12.8594 64.0898 13.7734C63.9805 14.6797 63.7656 15.5469 63.4453 16.375C63.1328 17.2031 62.6758 17.9453 62.0742 18.6016C61.4727 19.25 60.6875 19.7656 59.7188 20.1484C58.7578 20.5234 57.5703 20.7109 56.1562 20.7109H55.9336V18.8711ZM69.4336 18.8711H69.6562C70.9062 18.8711 71.9219 18.6953 72.7031 18.3438C73.4844 17.9922 74.0859 17.5195 74.5078 16.9258C74.9297 16.332 75.2188 15.6641 75.375 14.9219C75.5312 14.1719 75.6094 13.4023 75.6094 12.6133V10C75.6094 9.22656 75.5195 8.53906 75.3398 7.9375C75.168 7.33594 74.9258 6.83203 74.6133 6.42578C74.3086 6.01953 73.9609 5.71094 73.5703 5.5C73.1797 5.28906 72.7656 5.18359 72.3281 5.18359C71.8281 5.18359 71.3789 5.28516 70.9805 5.48828C70.5898 5.68359 70.2578 5.96094 69.9844 6.32031C69.7188 6.67969 69.5156 7.10156 69.375 7.58594C69.2344 8.07031 69.1641 8.59766 69.1641 9.16797C69.1641 9.67578 69.2266 10.168 69.3516 10.6445C69.4766 11.1211 69.668 11.5508 69.9258 11.9336C70.1836 12.3164 70.5039 12.6211 70.8867 12.8477C71.2773 13.0664 71.7344 13.1758 72.2578 13.1758C72.7422 13.1758 73.1953 13.082 73.6172 12.8945C74.0469 12.6992 74.4258 12.4375 74.7539 12.1094C75.0898 11.7734 75.3555 11.3945 75.5508 10.9727C75.7539 10.5508 75.8711 10.1094 75.9023 9.64844H76.9336C76.9336 10.2969 76.8047 10.9375 76.5469 11.5703C76.2969 12.1953 75.9453 12.7656 75.4922 13.2812C75.0391 13.7969 74.5078 14.2109 73.8984 14.5234C73.2891 14.8281 72.625 14.9805 71.9062 14.9805C71.0625 14.9805 70.332 14.8164 69.7148 14.4883C69.0977 14.1602 68.5898 13.7227 68.1914 13.1758C67.8008 12.6289 67.5078 12.0195 67.3125 11.3477C67.125 10.668 67.0312 9.98047 67.0312 9.28516C67.0312 8.47266 67.1445 7.71094 67.3711 7C67.5977 6.28906 67.9336 5.66406 68.3789 5.125C68.8242 4.57812 69.375 4.15234 70.0312 3.84766C70.6953 3.54297 71.4609 3.39062 72.3281 3.39062C73.3047 3.39062 74.1367 3.58594 74.8242 3.97656C75.5117 4.36719 76.0703 4.89062 76.5 5.54688C76.9375 6.20312 77.2578 6.94141 77.4609 7.76172C77.6641 8.58203 77.7656 9.42578 77.7656 10.293V11.0781C77.7656 11.9609 77.707 12.8594 77.5898 13.7734C77.4805 14.6797 77.2656 15.5469 76.9453 16.375C76.6328 17.2031 76.1758 17.9453 75.5742 18.6016C74.9727 19.25 74.1875 19.7656 73.2188 20.1484C72.2578 20.5234 71.0703 20.7109 69.6562 20.7109H69.4336V18.8711ZM91.4883 10.7969V13.3984C91.4883 14.7969 91.3633 15.9766 91.1133 16.9375C90.8633 17.8984 90.5039 18.6719 90.0352 19.2578C89.5664 19.8438 89 20.2695 88.3359 20.5352C87.6797 20.793 86.9375 20.9219 86.1094 20.9219C85.4531 20.9219 84.8477 20.8398 84.293 20.6758C83.7383 20.5117 83.2383 20.25 82.793 19.8906C82.3555 19.5234 81.9805 19.0469 81.668 18.4609C81.3555 17.875 81.1172 17.1641 80.9531 16.3281C80.7891 15.4922 80.707 14.5156 80.707 13.3984V10.7969C80.707 9.39844 80.832 8.22656 81.082 7.28125C81.3398 6.33594 81.7031 5.57813 82.1719 5.00781C82.6406 4.42969 83.2031 4.01562 83.8594 3.76562C84.5234 3.51563 85.2656 3.39062 86.0859 3.39062C86.75 3.39062 87.3594 3.47266 87.9141 3.63672C88.4766 3.79297 88.9766 4.04688 89.4141 4.39844C89.8516 4.74219 90.2227 5.20313 90.5273 5.78125C90.8398 6.35156 91.0781 7.05078 91.2422 7.87891C91.4062 8.70703 91.4883 9.67969 91.4883 10.7969ZM89.3086 13.75V10.4336C89.3086 9.66797 89.2617 8.99609 89.168 8.41797C89.082 7.83203 88.9531 7.33203 88.7812 6.91797C88.6094 6.50391 88.3906 6.16797 88.125 5.91016C87.8672 5.65234 87.5664 5.46484 87.2227 5.34766C86.8867 5.22266 86.5078 5.16016 86.0859 5.16016C85.5703 5.16016 85.1133 5.25781 84.7148 5.45312C84.3164 5.64062 83.9805 5.94141 83.707 6.35547C83.4414 6.76953 83.2383 7.3125 83.0977 7.98438C82.957 8.65625 82.8867 9.47266 82.8867 10.4336V13.75C82.8867 14.5156 82.9297 15.1914 83.0156 15.7773C83.1094 16.3633 83.2461 16.8711 83.4258 17.3008C83.6055 17.7227 83.8242 18.0703 84.082 18.3438C84.3398 18.6172 84.6367 18.8203 84.9727 18.9531C85.3164 19.0781 85.6953 19.1406 86.1094 19.1406C86.6406 19.1406 87.1055 19.0391 87.5039 18.8359C87.9023 18.6328 88.2344 18.3164 88.5 17.8867C88.7734 17.4492 88.9766 16.8906 89.1094 16.2109C89.2422 15.5234 89.3086 14.7031 89.3086 13.75Z" fill="#333333"/>
<path d="M110.708 16.6484V17.6875H104.193V16.7783L107.454 13.1484C107.855 12.7018 108.165 12.3236 108.384 12.0137C108.607 11.6992 108.762 11.4189 108.849 11.1729C108.94 10.9222 108.985 10.667 108.985 10.4072C108.985 10.0791 108.917 9.78288 108.78 9.51855C108.648 9.24967 108.452 9.03548 108.192 8.87598C107.933 8.71647 107.618 8.63672 107.249 8.63672C106.807 8.63672 106.438 8.72331 106.142 8.89648C105.85 9.0651 105.631 9.30208 105.485 9.60742C105.34 9.91276 105.267 10.2637 105.267 10.6602H104.002C104.002 10.0996 104.125 9.58691 104.371 9.12207C104.617 8.65723 104.982 8.28809 105.465 8.01465C105.948 7.73665 106.543 7.59766 107.249 7.59766C107.878 7.59766 108.416 7.70931 108.862 7.93262C109.309 8.15137 109.651 8.46126 109.888 8.8623C110.129 9.25879 110.25 9.72363 110.25 10.2568C110.25 10.5485 110.2 10.8447 110.1 11.1455C110.004 11.4417 109.869 11.738 109.696 12.0342C109.528 12.3304 109.329 12.6221 109.102 12.9092C108.878 13.1963 108.639 13.4788 108.384 13.7568L105.718 16.6484H110.708ZM113.661 12.9502L112.649 12.6904L113.148 7.73438H118.255V8.90332H114.222L113.921 11.6104C114.103 11.5055 114.333 11.4076 114.611 11.3164C114.894 11.2253 115.217 11.1797 115.582 11.1797C116.042 11.1797 116.455 11.2594 116.819 11.4189C117.184 11.5739 117.494 11.7972 117.749 12.0889C118.009 12.3805 118.207 12.7314 118.344 13.1416C118.48 13.5518 118.549 14.0098 118.549 14.5156C118.549 14.9941 118.483 15.4339 118.351 15.835C118.223 16.236 118.029 16.5869 117.77 16.8877C117.51 17.1839 117.182 17.4141 116.785 17.5781C116.393 17.7422 115.931 17.8242 115.397 17.8242C114.996 17.8242 114.616 17.7695 114.256 17.6602C113.9 17.5462 113.581 17.3753 113.299 17.1475C113.021 16.915 112.793 16.6279 112.615 16.2861C112.442 15.9398 112.333 15.5342 112.287 15.0693H113.49C113.545 15.443 113.654 15.7575 113.818 16.0127C113.982 16.2679 114.197 16.4616 114.461 16.5938C114.73 16.7214 115.042 16.7852 115.397 16.7852C115.698 16.7852 115.965 16.7327 116.197 16.6279C116.43 16.5231 116.626 16.3727 116.785 16.1768C116.945 15.9808 117.065 15.7438 117.147 15.4658C117.234 15.1878 117.277 14.8757 117.277 14.5293C117.277 14.2148 117.234 13.9232 117.147 13.6543C117.061 13.3854 116.931 13.1507 116.758 12.9502C116.589 12.7497 116.382 12.5947 116.136 12.4854C115.89 12.3714 115.607 12.3145 115.288 12.3145C114.864 12.3145 114.543 12.3714 114.324 12.4854C114.11 12.5993 113.889 12.7542 113.661 12.9502ZM119.827 10.1748V9.64844C119.827 9.27018 119.909 8.92611 120.073 8.61621C120.237 8.30632 120.472 8.05794 120.777 7.87109C121.083 7.68424 121.445 7.59082 121.864 7.59082C122.293 7.59082 122.657 7.68424 122.958 7.87109C123.263 8.05794 123.498 8.30632 123.662 8.61621C123.826 8.92611 123.908 9.27018 123.908 9.64844V10.1748C123.908 10.5439 123.826 10.8835 123.662 11.1934C123.503 11.5033 123.27 11.7516 122.965 11.9385C122.664 12.1253 122.302 12.2188 121.878 12.2188C121.454 12.2188 121.087 12.1253 120.777 11.9385C120.472 11.7516 120.237 11.5033 120.073 11.1934C119.909 10.8835 119.827 10.5439 119.827 10.1748ZM120.777 9.64844V10.1748C120.777 10.3844 120.816 10.5827 120.894 10.7695C120.976 10.9564 121.099 11.109 121.263 11.2275C121.427 11.3415 121.632 11.3984 121.878 11.3984C122.124 11.3984 122.327 11.3415 122.486 11.2275C122.646 11.109 122.764 10.9564 122.842 10.7695C122.919 10.5827 122.958 10.3844 122.958 10.1748V9.64844C122.958 9.43424 122.917 9.23372 122.835 9.04688C122.757 8.85547 122.637 8.7028 122.473 8.58887C122.313 8.47038 122.11 8.41113 121.864 8.41113C121.623 8.41113 121.42 8.47038 121.256 8.58887C121.096 8.7028 120.976 8.85547 120.894 9.04688C120.816 9.23372 120.777 9.43424 120.777 9.64844ZM124.674 15.7803V15.2471C124.674 14.8734 124.756 14.5316 124.92 14.2217C125.084 13.9118 125.319 13.6634 125.624 13.4766C125.929 13.2897 126.292 13.1963 126.711 13.1963C127.139 13.1963 127.504 13.2897 127.805 13.4766C128.11 13.6634 128.345 13.9118 128.509 14.2217C128.673 14.5316 128.755 14.8734 128.755 15.2471V15.7803C128.755 16.154 128.673 16.4958 128.509 16.8057C128.349 17.1156 128.117 17.3639 127.812 17.5508C127.511 17.7376 127.148 17.8311 126.725 17.8311C126.301 17.8311 125.936 17.7376 125.631 17.5508C125.326 17.3639 125.089 17.1156 124.92 16.8057C124.756 16.4958 124.674 16.154 124.674 15.7803ZM125.624 15.2471V15.7803C125.624 15.9899 125.663 16.1904 125.74 16.3818C125.822 16.5687 125.945 16.7214 126.109 16.8398C126.273 16.9538 126.479 17.0107 126.725 17.0107C126.971 17.0107 127.174 16.9538 127.333 16.8398C127.497 16.7214 127.618 16.5687 127.695 16.3818C127.773 16.195 127.812 15.9945 127.812 15.7803V15.2471C127.812 15.0329 127.771 14.8324 127.688 14.6455C127.611 14.4587 127.49 14.3083 127.326 14.1943C127.167 14.0758 126.962 14.0166 126.711 14.0166C126.469 14.0166 126.267 14.0758 126.103 14.1943C125.943 14.3083 125.822 14.4587 125.74 14.6455C125.663 14.8324 125.624 15.0329 125.624 15.2471ZM127.025 9.14941L122.165 16.9287L121.454 16.4775L126.314 8.69824L127.025 9.14941ZM141.654 12.3965V13.0254C141.654 13.7728 141.561 14.4427 141.374 15.0352C141.187 15.6276 140.918 16.1312 140.567 16.5459C140.216 16.9606 139.795 17.2773 139.303 17.4961C138.815 17.7148 138.268 17.8242 137.662 17.8242C137.074 17.8242 136.534 17.7148 136.042 17.4961C135.554 17.2773 135.131 16.9606 134.771 16.5459C134.415 16.1312 134.139 15.6276 133.943 15.0352C133.747 14.4427 133.649 13.7728 133.649 13.0254V12.3965C133.649 11.6491 133.745 10.9814 133.937 10.3936C134.132 9.80111 134.408 9.29753 134.764 8.88281C135.119 8.46354 135.541 8.14453 136.028 7.92578C136.521 7.70703 137.061 7.59766 137.648 7.59766C138.255 7.59766 138.801 7.70703 139.289 7.92578C139.781 8.14453 140.203 8.46354 140.554 8.88281C140.909 9.29753 141.18 9.80111 141.367 10.3936C141.559 10.9814 141.654 11.6491 141.654 12.3965ZM140.349 13.0254V12.3828C140.349 11.7904 140.287 11.2663 140.164 10.8105C140.046 10.3548 139.87 9.97201 139.638 9.66211C139.405 9.35221 139.12 9.11751 138.783 8.95801C138.451 8.7985 138.072 8.71875 137.648 8.71875C137.238 8.71875 136.867 8.7985 136.534 8.95801C136.206 9.11751 135.924 9.35221 135.687 9.66211C135.454 9.97201 135.274 10.3548 135.146 10.8105C135.019 11.2663 134.955 11.7904 134.955 12.3828V13.0254C134.955 13.6224 135.019 14.151 135.146 14.6113C135.274 15.0671 135.456 15.4521 135.693 15.7666C135.935 16.0765 136.22 16.3112 136.548 16.4707C136.881 16.6302 137.252 16.71 137.662 16.71C138.09 16.71 138.471 16.6302 138.804 16.4707C139.136 16.3112 139.417 16.0765 139.645 15.7666C139.877 15.4521 140.052 15.0671 140.171 14.6113C140.289 14.151 140.349 13.6224 140.349 13.0254ZM144.949 7.73438V17.6875H143.63V7.73438H144.949ZM149.119 12.2119V13.292H144.662V12.2119H149.119ZM149.796 7.73438V8.81445H144.662V7.73438H149.796ZM152.688 7.73438V17.6875H151.368V7.73438H152.688ZM156.857 12.2119V13.292H152.4V12.2119H156.857ZM157.534 7.73438V8.81445H152.4V7.73438H157.534Z" fill="#00A650"/>
</svg>
